<svg xmlns="http://www.w3.org/2000/svg" width="840" height="840" fill="none"><path fill="#fff" d="M0 0h840v840H0z"/><path fill="#000" d="M380.688 686.188c-123.202 0-211.907-71.367-210.675-171.035h112.114c0 45.527 41.888 77.519 99.793 77.519 49.281 0 83.778-23.379 83.778-52.91 0-38.145-51.745-49.219-105.954-54.141-101.026-12.304-184.803-28.3-184.803-139.043C174.941 257.985 258.718 194 369.6 194c121.97 0 209.444 65.215 209.444 156.27H462.002c0-36.914-39.425-62.754-93.634-62.754-40.657 0-73.921 20.918-73.921 51.68 0 29.531 39.424 39.375 91.169 46.757 92.402 12.305 208.212 30.762 208.212 137.813 0 94.746-86.242 162.422-213.14 162.422Z"/><path fill="url(#a)" d="M644 256c40.87 0 74-33.131 74-74 0-40.87-33.13-74-74-74-40.869 0-74 33.13-74 74 0 40.869 33.131 74 74 74Z"/><defs><linearGradient id="a" x1="570" x2="718" y1="108" y2="256" gradientUnits="userSpaceOnUse"><stop stop-color="#FB2C36"/><stop offset="1" stop-color="#E7000B"/></linearGradient></defs></svg>